<svg width="56" height="55" viewBox="0 0 56 55" fill="none" xmlns="http://www.w3.org/2000/svg">
<path d="M27.7588 1C42.5461 1 54.5176 12.8733 54.5176 27.5C54.5176 42.1267 42.5461 54 27.7588 54C12.9715 54 1 42.1267 1 27.5C1 12.8733 12.9715 1.00002 27.7588 1Z" stroke="white" stroke-width="2"/>
<path d="M28.2638 36.5422C28.0661 36.5446 27.8702 36.5057 27.6885 36.4278C27.5068 36.3499 27.3434 36.2349 27.2089 36.0901L13.6455 22.5267C13.0427 21.9239 13.0427 20.9896 13.6455 20.3867C14.2483 19.7839 15.1827 19.7839 15.7855 20.3867L28.2939 32.8952L40.7722 20.4169C41.3751 19.8141 42.3094 19.8141 42.9122 20.4169C43.5151 21.0197 43.5151 21.9541 42.9122 22.5569L29.3489 36.1203C29.0474 36.4217 28.6556 36.5724 28.2939 36.5724L28.2638 36.5422Z" fill="white"/>
</svg>
